<mxfile host="app.diagrams.net" agent="Mozilla/5.0 (X11; Linux x86_64) AppleWebKit/537.36 (KHTML, like Gecko) Chrome/129.0.0.0 Safari/537.36" version="24.7.16">
  <diagram name="Page-1" id="rkO5ywUHCYAQZmZOdDGt">
    <mxGraphModel dx="478" dy="253" grid="1" gridSize="10" guides="1" tooltips="1" connect="1" arrows="1" fold="1" page="1" pageScale="1" pageWidth="850" pageHeight="1100" math="0" shadow="0">
      <root>
        <mxCell id="0" />
        <mxCell id="1" parent="0" />
        <mxCell id="P5S0CrQTiHxTbSdfV24q-5" style="edgeStyle=orthogonalEdgeStyle;rounded=0;orthogonalLoop=1;jettySize=auto;html=1;entryX=0;entryY=0.5;entryDx=0;entryDy=0;" edge="1" parent="1" source="P5S0CrQTiHxTbSdfV24q-2" target="P5S0CrQTiHxTbSdfV24q-4">
          <mxGeometry relative="1" as="geometry" />
        </mxCell>
        <mxCell id="P5S0CrQTiHxTbSdfV24q-28" style="edgeStyle=orthogonalEdgeStyle;rounded=0;orthogonalLoop=1;jettySize=auto;html=1;entryX=1;entryY=0.5;entryDx=0;entryDy=0;" edge="1" parent="1" source="P5S0CrQTiHxTbSdfV24q-2" target="P5S0CrQTiHxTbSdfV24q-13">
          <mxGeometry relative="1" as="geometry" />
        </mxCell>
        <mxCell id="P5S0CrQTiHxTbSdfV24q-33" style="edgeStyle=orthogonalEdgeStyle;rounded=0;orthogonalLoop=1;jettySize=auto;html=1;exitX=0.25;exitY=1;exitDx=0;exitDy=0;entryX=0.5;entryY=0;entryDx=0;entryDy=0;" edge="1" parent="1" source="P5S0CrQTiHxTbSdfV24q-2" target="P5S0CrQTiHxTbSdfV24q-20">
          <mxGeometry relative="1" as="geometry" />
        </mxCell>
        <mxCell id="P5S0CrQTiHxTbSdfV24q-46" style="edgeStyle=orthogonalEdgeStyle;rounded=0;orthogonalLoop=1;jettySize=auto;html=1;exitX=0.75;exitY=1;exitDx=0;exitDy=0;entryX=0.5;entryY=0;entryDx=0;entryDy=0;" edge="1" parent="1" source="P5S0CrQTiHxTbSdfV24q-2" target="P5S0CrQTiHxTbSdfV24q-42">
          <mxGeometry relative="1" as="geometry" />
        </mxCell>
        <mxCell id="P5S0CrQTiHxTbSdfV24q-2" value="MAIN" style="rounded=1;whiteSpace=wrap;html=1;strokeWidth=3;" vertex="1" parent="1">
          <mxGeometry x="250" y="130" width="120" height="60" as="geometry" />
        </mxCell>
        <mxCell id="P5S0CrQTiHxTbSdfV24q-4" value="Backend" style="rounded=1;whiteSpace=wrap;html=1;strokeWidth=3;fontStyle=4;fontSize=14;" vertex="1" parent="1">
          <mxGeometry x="480" y="90" width="300" height="140" as="geometry" />
        </mxCell>
        <mxCell id="P5S0CrQTiHxTbSdfV24q-6" value="Windowing" style="rounded=0;whiteSpace=wrap;html=1;" vertex="1" parent="1">
          <mxGeometry x="570" y="110" width="100" height="20" as="geometry" />
        </mxCell>
        <mxCell id="P5S0CrQTiHxTbSdfV24q-10" value="Input" style="rounded=0;whiteSpace=wrap;html=1;" vertex="1" parent="1">
          <mxGeometry x="520" y="190" width="120" height="20" as="geometry" />
        </mxCell>
        <mxCell id="P5S0CrQTiHxTbSdfV24q-26" style="edgeStyle=orthogonalEdgeStyle;rounded=0;orthogonalLoop=1;jettySize=auto;html=1;exitX=0.25;exitY=0;exitDx=0;exitDy=0;entryX=0.5;entryY=1;entryDx=0;entryDy=0;" edge="1" parent="1" source="P5S0CrQTiHxTbSdfV24q-13" target="P5S0CrQTiHxTbSdfV24q-15">
          <mxGeometry relative="1" as="geometry" />
        </mxCell>
        <mxCell id="P5S0CrQTiHxTbSdfV24q-27" style="edgeStyle=orthogonalEdgeStyle;rounded=0;orthogonalLoop=1;jettySize=auto;html=1;exitX=0.75;exitY=0;exitDx=0;exitDy=0;entryX=0.5;entryY=1;entryDx=0;entryDy=0;" edge="1" parent="1" source="P5S0CrQTiHxTbSdfV24q-13" target="P5S0CrQTiHxTbSdfV24q-18">
          <mxGeometry relative="1" as="geometry" />
        </mxCell>
        <mxCell id="P5S0CrQTiHxTbSdfV24q-13" value="Simulator" style="rounded=1;whiteSpace=wrap;html=1;perimeterSpacing=3;strokeWidth=3;" vertex="1" parent="1">
          <mxGeometry x="70" y="120" width="120" height="60" as="geometry" />
        </mxCell>
        <mxCell id="P5S0CrQTiHxTbSdfV24q-15" value="Math" style="whiteSpace=wrap;html=1;rounded=0;" vertex="1" parent="1">
          <mxGeometry x="20" y="50" width="120" height="30" as="geometry" />
        </mxCell>
        <mxCell id="P5S0CrQTiHxTbSdfV24q-18" value="...." style="whiteSpace=wrap;html=1;rounded=0;" vertex="1" parent="1">
          <mxGeometry x="160" y="50" width="130" height="30" as="geometry" />
        </mxCell>
        <mxCell id="P5S0CrQTiHxTbSdfV24q-32" style="edgeStyle=orthogonalEdgeStyle;rounded=0;orthogonalLoop=1;jettySize=auto;html=1;entryX=0.5;entryY=0;entryDx=0;entryDy=0;" edge="1" parent="1" source="P5S0CrQTiHxTbSdfV24q-20" target="P5S0CrQTiHxTbSdfV24q-21">
          <mxGeometry relative="1" as="geometry" />
        </mxCell>
        <mxCell id="P5S0CrQTiHxTbSdfV24q-20" value="Scene" style="rounded=1;whiteSpace=wrap;html=1;strokeWidth=3;" vertex="1" parent="1">
          <mxGeometry x="180" y="250" width="120" height="60" as="geometry" />
        </mxCell>
        <mxCell id="P5S0CrQTiHxTbSdfV24q-21" value="WorldObjects" style="rounded=1;whiteSpace=wrap;html=1;strokeWidth=3;fontStyle=4;fontSize=14;" vertex="1" parent="1">
          <mxGeometry x="40" y="350" width="260" height="140" as="geometry" />
        </mxCell>
        <mxCell id="P5S0CrQTiHxTbSdfV24q-62" style="edgeStyle=orthogonalEdgeStyle;rounded=0;orthogonalLoop=1;jettySize=auto;html=1;exitX=0.75;exitY=1;exitDx=0;exitDy=0;entryX=0.25;entryY=0;entryDx=0;entryDy=0;" edge="1" parent="1" source="P5S0CrQTiHxTbSdfV24q-22" target="P5S0CrQTiHxTbSdfV24q-49">
          <mxGeometry relative="1" as="geometry" />
        </mxCell>
        <mxCell id="P5S0CrQTiHxTbSdfV24q-22" value="WorldObject" style="whiteSpace=wrap;html=1;rounded=0;" vertex="1" parent="1">
          <mxGeometry x="60" y="440" width="80" height="30" as="geometry" />
        </mxCell>
        <mxCell id="P5S0CrQTiHxTbSdfV24q-29" value="SimContainer" style="whiteSpace=wrap;html=1;rounded=0;" vertex="1" parent="1">
          <mxGeometry x="190" y="440" width="80" height="30" as="geometry" />
        </mxCell>
        <mxCell id="P5S0CrQTiHxTbSdfV24q-34" value="Timing" style="rounded=0;whiteSpace=wrap;html=1;" vertex="1" parent="1">
          <mxGeometry x="650" y="190" width="120" height="20" as="geometry" />
        </mxCell>
        <mxCell id="P5S0CrQTiHxTbSdfV24q-36" value="Rendering" style="rounded=1;whiteSpace=wrap;html=1;strokeWidth=3;fontSize=14;fontStyle=4" vertex="1" parent="1">
          <mxGeometry x="100" y="540" width="240" height="160" as="geometry" />
        </mxCell>
        <mxCell id="P5S0CrQTiHxTbSdfV24q-42" value="UI" style="rounded=1;whiteSpace=wrap;html=1;strokeWidth=3;" vertex="1" parent="1">
          <mxGeometry x="420" y="360" width="190" height="170" as="geometry" />
        </mxCell>
        <mxCell id="P5S0CrQTiHxTbSdfV24q-47" value="Initlialize" style="whiteSpace=wrap;html=1;rounded=0;" vertex="1" parent="1">
          <mxGeometry x="130" y="640" width="80" height="30" as="geometry" />
        </mxCell>
        <mxCell id="P5S0CrQTiHxTbSdfV24q-49" value="renderer" style="whiteSpace=wrap;html=1;rounded=0;" vertex="1" parent="1">
          <mxGeometry x="130" y="560" width="80" height="30" as="geometry" />
        </mxCell>
        <mxCell id="P5S0CrQTiHxTbSdfV24q-61" style="edgeStyle=orthogonalEdgeStyle;rounded=0;orthogonalLoop=1;jettySize=auto;html=1;entryX=1;entryY=0.5;entryDx=0;entryDy=0;" edge="1" parent="1" source="P5S0CrQTiHxTbSdfV24q-60" target="P5S0CrQTiHxTbSdfV24q-36">
          <mxGeometry relative="1" as="geometry" />
        </mxCell>
        <mxCell id="P5S0CrQTiHxTbSdfV24q-60" value="ui&lt;span style=&quot;background-color: initial;&quot;&gt;_renderer&lt;/span&gt;" style="whiteSpace=wrap;html=1;rounded=0;" vertex="1" parent="1">
          <mxGeometry x="440" y="470" width="80" height="30" as="geometry" />
        </mxCell>
        <mxCell id="P5S0CrQTiHxTbSdfV24q-63" style="edgeStyle=orthogonalEdgeStyle;rounded=0;orthogonalLoop=1;jettySize=auto;html=1;entryX=0.465;entryY=0;entryDx=0;entryDy=0;entryPerimeter=0;" edge="1" parent="1" source="P5S0CrQTiHxTbSdfV24q-29" target="P5S0CrQTiHxTbSdfV24q-36">
          <mxGeometry relative="1" as="geometry" />
        </mxCell>
      </root>
    </mxGraphModel>
  </diagram>
</mxfile>
